<svg width="256" height="256" viewBox="0 0 256 256" fill="none" xmlns="http://www.w3.org/2000/svg">
<path d="M256 256H0V0H256V256ZM34 222H190.116L65.5811 34H34V222ZM116.194 167.456C127.004 167.456 135.767 176.359 135.767 187.34C135.767 198.321 127.004 207.224 116.194 207.224C105.385 207.224 96.6211 198.321 96.6211 187.34C96.6211 176.358 105.385 167.456 116.194 167.456ZM139.767 47.8271C128.797 47.8271 119.903 56.7198 119.903 67.6895C119.903 78.6592 128.797 87.5527 139.767 87.5527C150.736 87.5526 159.629 78.6592 159.629 67.6895C159.629 56.7198 150.736 47.8273 139.767 47.8271Z" fill="#808080"/>
</svg>
