<svg width="256" height="256" viewBox="0 0 256 256" fill="none" xmlns="http://www.w3.org/2000/svg">
<rect x="0" y="0" width="100%" height="100%" fill="none" />
<path d="M169 53C210.421 53 244 86.5786 244 128C244 169.421 210.421 203 169 203C153.653 203 139.385 198.389 127.5 190.479C115.615 198.389 101.347 203 86 203C44.5786 203 11 169.421 11 128C11 86.5786 44.5786 53 86 53C101.346 53 115.616 57.61 127.5 65.5195C139.384 57.61 153.654 53 169 53ZM86 83C61.1472 83 41 103.147 41 128C41 152.853 61.1472 173 86 173C93.1088 173 99.8311 171.348 105.809 168.413C98.3341 156.75 94 142.881 94 128C94 113.119 98.3338 99.2493 105.809 87.5859C99.8312 84.6507 93.1087 83 86 83ZM169 83C161.891 83 155.168 84.6504 149.19 87.5859C156.665 99.2494 161 113.118 161 128C161 142.881 156.665 156.75 149.19 168.413C155.168 171.349 161.891 173 169 173C193.853 173 214 152.853 214 128C214 103.147 193.853 83 169 83ZM127.5 110.572C125.246 115.932 124 121.821 124 128C124 134.179 125.247 140.067 127.5 145.427C129.753 140.067 131 134.179 131 128C131 121.821 129.754 115.932 127.5 110.572Z" fill="#000000"/>
</svg>
