<svg width="256" height="256" viewBox="0 0 256 256" fill="none" xmlns="http://www.w3.org/2000/svg">
<rect x="0" y="0" width="100%" height="100%" fill="none" />
<path d="M84.834 63C93.1508 63 100.599 66.5358 106.487 70.4404C112.561 74.4684 118.432 79.8651 123.91 85.7197C125.378 87.2881 126.844 88.9197 128.307 90.6035C129.749 88.9325 131.196 87.3131 132.644 85.7559C138.087 79.9008 143.924 74.4996 149.967 70.4658C155.82 66.5584 163.253 63 171.57 63H233C241.284 63 248 69.7157 248 78C248 86.2843 241.284 93 233 93H171.57C171.714 93.0001 170.187 93.0373 166.622 95.417C163.244 97.6722 159.196 101.256 154.616 106.182C152.125 108.861 149.59 111.815 147.034 114.979C149.889 119.081 152.668 123.226 155.333 127.328C164.926 142.093 173.421 156.792 179.501 167.759C182.547 173.254 185.002 177.84 186.701 181.064C187.551 182.677 188.214 183.95 188.667 184.828C188.894 185.267 189.068 185.607 189.188 185.842C189.247 185.959 189.294 186.05 189.326 186.113C189.342 186.145 189.355 186.17 189.364 186.188C189.369 186.196 189.372 186.204 189.375 186.209C189.376 186.211 189.377 186.214 189.378 186.216C189.379 186.218 189.381 186.221 176 193L189.381 186.221C193.125 193.611 190.169 202.637 182.779 206.381C175.389 210.125 166.363 207.169 162.619 199.779V199.778C162.618 199.777 162.617 199.774 162.615 199.771C162.61 199.761 162.602 199.744 162.59 199.721C162.566 199.674 162.528 199.599 162.477 199.499C162.374 199.298 162.217 198.992 162.009 198.589C161.592 197.782 160.971 196.585 160.163 195.053C158.547 191.988 156.193 187.589 153.263 182.304C147.389 171.709 139.262 157.657 130.176 143.672C129.582 142.757 128.984 141.845 128.385 140.937C127.798 141.833 127.213 142.733 126.631 143.635C117.604 157.62 109.53 171.672 103.694 182.268C100.783 187.553 98.4449 191.952 96.8398 195.018C96.0376 196.55 95.4186 197.747 95.0049 198.554C94.7983 198.957 94.643 199.262 94.541 199.463C94.4902 199.563 94.4526 199.637 94.4287 199.685L94.3984 199.745C90.6735 207.144 81.6553 210.123 74.2559 206.398C66.8562 202.674 63.8769 193.656 67.6016 186.256L80.4629 192.729C67.848 186.38 67.607 186.257 67.6035 186.252C67.6042 186.251 67.6061 186.248 67.6074 186.245C67.6102 186.24 67.6136 186.232 67.6182 186.223C67.6272 186.205 67.6403 186.18 67.6562 186.148C67.6883 186.085 67.7335 185.994 67.793 185.877C67.912 185.643 68.0854 185.302 68.3105 184.863C68.7607 183.986 69.4184 182.712 70.2627 181.1C71.9509 177.876 74.3897 173.29 77.416 167.795C83.4558 156.828 91.8961 142.129 101.426 127.365C104.069 123.27 106.823 119.132 109.654 115.037C107.076 111.865 104.519 108.903 102.006 106.218C97.3957 101.291 93.3167 97.7034 89.9072 95.4424C86.3144 93.0598 84.7446 93.0001 84.834 93H23C14.7157 93 8 86.2843 8 78C8 69.7157 14.7157 63 23 63H84.834Z" fill="#000000"/>
</svg>
