<svg width="256" height="256" viewBox="0 0 256 256" fill="none" xmlns="http://www.w3.org/2000/svg">
<rect x="0" y="0" width="100%" height="100%" fill="none" />
<path d="M65.5 175C52.9022 175 40.8204 169.996 31.9124 161.088C23.0044 152.18 18 140.098 18 127.5C18 114.902 23.0045 102.82 31.9124 93.9124C40.8204 85.0044 52.9022 80 65.5 80" stroke="#000000" stroke-width="30"/>
<path d="M188 128C188 135.879 186.448 143.681 183.433 150.961C180.417 158.241 175.998 164.855 170.426 170.426C164.855 175.998 158.241 180.417 150.961 183.433C143.681 186.448 135.879 188 128 188C120.121 188 112.319 186.448 105.039 183.433C97.7595 180.417 91.1451 175.998 85.5736 170.426C80.0021 164.855 75.5825 158.241 72.5672 150.961C69.5519 143.681 68 135.879 68 128C68 120.121 69.5519 112.319 72.5672 105.039C75.5825 97.7595 80.0021 91.1451 85.5736 85.5736C91.1451 80.0021 97.7595 75.5825 105.039 72.5672C112.319 69.5519 120.121 68 128 68C135.879 68 143.681 69.5519 150.961 72.5672C158.241 75.5825 164.855 80.0021 170.426 85.5736C175.998 91.1451 180.417 97.7595 183.433 105.039C186.448 112.319 188 120.121 188 128L188 128Z" stroke="#000000" stroke-width="30"/>
<path d="M190.5 80C196.738 80 202.915 81.2286 208.677 83.6157C214.44 86.0028 219.677 89.5017 224.088 93.9124C228.498 98.3232 231.997 103.56 234.384 109.323C236.771 115.086 238 121.262 238 127.5C238 133.738 236.771 139.915 234.384 145.677C231.997 151.44 228.498 156.677 224.088 161.088C219.677 165.498 214.44 168.997 208.677 171.384C202.914 173.771 196.738 175 190.5 175" stroke="#000000" stroke-width="30"/>
</svg>
