<svg width="256" height="256" viewBox="0 0 256 256" fill="none" xmlns="http://www.w3.org/2000/svg">
<rect x="0" y="0" width="100%" height="100%" fill="none" />
<path d="M128.304 42.998C128.329 42.9985 128.355 42.9994 128.381 43C128.48 43.0022 128.579 43.0047 128.678 43.0088C128.704 43.0099 128.73 43.0115 128.756 43.0127C128.856 43.0174 128.956 43.0236 129.056 43.0303C129.075 43.0316 129.094 43.0328 129.113 43.0342C129.213 43.0413 129.313 43.0495 129.413 43.0586C129.44 43.061 129.466 43.0638 129.493 43.0664C129.842 43.1002 130.189 43.1452 130.533 43.2031C130.555 43.2069 130.577 43.211 130.6 43.2148C130.704 43.233 130.809 43.2521 130.913 43.2725C130.926 43.275 130.939 43.2777 130.952 43.2803C131.825 43.4529 132.678 43.702 133.501 44.0234C133.538 44.0379 133.575 44.0526 133.612 44.0674C133.692 44.0993 133.772 44.1317 133.852 44.165C135.535 44.8685 137.03 45.8515 138.301 47.041C138.331 47.0691 138.361 47.0976 138.391 47.126C138.444 47.177 138.498 47.2276 138.551 47.2793C140.12 48.8134 141.374 50.7143 142.164 52.9082C142.21 53.0359 142.255 53.164 142.298 53.293L185.271 183.359H237.312C245.597 183.359 252.312 190.075 252.312 198.359C252.312 206.643 245.597 213.359 237.312 213.359H163.588L160.187 203.064L128.003 105.655L95.5742 203.096L92.1592 213.359H18C9.71585 213.359 3.00019 206.643 3 198.359C3.00007 190.075 9.71577 183.359 18 183.359H70.5244L113.799 53.3301C113.923 52.9513 114.063 52.5781 114.217 52.2109C114.923 50.5189 115.91 49.0172 117.106 47.7422C117.131 47.7165 117.154 47.6906 117.179 47.665C117.23 47.6108 117.283 47.5573 117.335 47.5039C117.384 47.4537 117.434 47.404 117.483 47.3545C117.51 47.3284 117.536 47.3023 117.562 47.2764C117.633 47.2076 117.704 47.1397 117.775 47.0723C117.79 47.0582 117.805 47.0442 117.82 47.0303C117.893 46.9619 117.967 46.8941 118.042 46.8271C118.056 46.8145 118.07 46.8016 118.084 46.7891C119.479 45.5472 121.127 44.5473 122.986 43.8809C123.102 43.8393 123.218 43.7995 123.335 43.7607L123.35 43.7559C123.359 43.7528 123.369 43.7502 123.378 43.7471C123.969 43.5525 124.574 43.3946 125.188 43.2744C125.201 43.2718 125.214 43.2692 125.228 43.2666C125.329 43.2469 125.432 43.2285 125.534 43.2109C125.566 43.2055 125.598 43.1996 125.63 43.1943C125.721 43.1794 125.812 43.1657 125.903 43.1523C125.952 43.1453 126 43.1384 126.049 43.1318C126.102 43.1247 126.154 43.1179 126.207 43.1113C126.278 43.1024 126.349 43.0938 126.42 43.0859C126.483 43.079 126.545 43.0725 126.608 43.0664C126.663 43.0611 126.718 43.0565 126.772 43.0518C126.838 43.0461 126.904 43.0409 126.97 43.0361C127.049 43.0303 127.128 43.025 127.207 43.0205C127.228 43.0193 127.249 43.0177 127.27 43.0166C127.371 43.0112 127.473 43.0072 127.574 43.0039C127.603 43.003 127.631 43.0027 127.659 43.002C127.741 42.9998 127.822 42.9979 127.903 42.9971C127.953 42.9966 128.003 42.9961 128.053 42.9961C128.136 42.9961 128.22 42.9967 128.304 42.998Z" fill="#000000"/>
</svg>
