<svg width="256" height="256" viewBox="0 0 256 256" fill="none" xmlns="http://www.w3.org/2000/svg">
<rect x="0" y="0" width="100%" height="100%" fill="none" />
<path d="M95.1642 247L90.3881 208.76C87.801 207.764 85.3632 206.569 83.0746 205.175C80.7861 203.781 78.5473 202.287 76.3582 200.694L40.8358 215.631L8 158.869L38.7463 135.566C38.5473 134.172 38.4478 132.828 38.4478 131.533V123.467C38.4478 122.172 38.5473 120.828 38.7463 119.434L8 96.1313L40.8358 39.3688L76.3582 54.3063C78.5473 52.7129 80.8358 51.2192 83.2239 49.825C85.6119 48.4308 88 47.2358 90.3881 46.24L95.1642 8H160.836L165.612 46.24C168.199 47.2358 170.637 48.4308 172.925 49.825C175.214 51.2192 177.453 52.7129 179.642 54.3063L215.164 39.3688L248 96.1313L217.254 119.434C217.453 120.828 217.552 122.172 217.552 123.467V131.533C217.552 132.828 217.353 134.172 216.955 135.566L247.701 158.869L214.866 215.631L179.642 200.694C177.453 202.287 175.164 203.781 172.776 205.175C170.388 206.569 168 207.764 165.612 208.76L160.836 247H95.1642ZM116.06 223.1H139.642L143.821 191.433C149.99 189.839 155.711 187.499 160.985 184.412C166.259 181.325 171.085 177.59 175.463 173.209L205.015 185.458L216.657 165.143L190.985 145.724C191.98 142.935 192.677 139.998 193.075 136.911C193.473 133.824 193.672 130.687 193.672 127.5C193.672 124.313 193.473 121.176 193.075 118.089C192.677 115.002 191.98 112.065 190.985 109.276L216.657 89.8575L205.015 69.5425L175.463 82.09C171.085 77.5092 166.259 73.6752 160.985 70.5881C155.711 67.501 149.99 65.1608 143.821 63.5675L139.94 31.9H116.358L112.179 63.5675C106.01 65.1608 100.289 67.501 95.0149 70.5881C89.7413 73.6752 84.9154 77.4096 80.5373 81.7913L50.9851 69.5425L39.3433 89.8575L65.0149 108.978C64.0199 111.965 63.3234 114.953 62.9254 117.94C62.5274 120.928 62.3284 124.114 62.3284 127.5C62.3284 130.687 62.5274 133.774 62.9254 136.761C63.3234 139.749 64.0199 142.736 65.0149 145.724L39.3433 165.143L50.9851 185.458L80.5373 172.91C84.9154 177.491 89.7413 181.325 95.0149 184.412C100.289 187.499 106.01 189.839 112.179 191.433L116.06 223.1ZM128.597 169.325C140.139 169.325 149.99 165.242 158.149 157.076C166.308 148.91 170.388 139.052 170.388 127.5C170.388 115.948 166.308 106.09 158.149 97.9238C149.99 89.7579 140.139 85.675 128.597 85.675C116.856 85.675 106.955 89.7579 98.8955 97.9238C90.8358 106.09 86.806 115.948 86.806 127.5C86.806 139.052 90.8358 148.91 98.8955 157.076C106.955 165.242 116.856 169.325 128.597 169.325Z" fill="#000000"/>
</svg>
