<svg width="256" height="256" viewBox="0 0 256 256" fill="none" xmlns="http://www.w3.org/2000/svg">
<rect x="0" y="0" width="100%" height="100%" fill="none" />
<path d="M128.555 45.0049C128.556 45.0049 128.558 45.0058 128.56 45.0059C139.641 45.2069 145.801 53.9049 148.366 58.2578C151.534 63.6341 153.948 70.4149 155.91 77.1738C159.889 90.8806 163.182 108.792 166.241 125.66C169.391 143.03 172.304 159.351 175.569 171.394C176.52 174.9 177.417 177.708 178.229 179.876C178.89 179.282 179.753 178.42 181.045 177.069C183.042 174.982 186.545 171.195 191.341 168.276C196.598 165.077 202.798 163.204 210.26 163.204C225.456 163.204 235.521 170.821 241.314 178.088C244.116 181.602 245.964 185.052 247.121 187.612C247.707 188.91 248.139 190.03 248.441 190.886C248.593 191.315 248.713 191.683 248.806 191.978C248.852 192.125 248.892 192.255 248.925 192.366C248.941 192.421 248.956 192.473 248.969 192.519C248.975 192.541 248.982 192.564 248.987 192.584C248.99 192.594 248.993 192.605 248.996 192.614C248.997 192.619 248.999 192.625 249 192.628C249.002 192.635 249.004 192.642 234.556 196.674L249.004 192.643C251.23 200.622 246.566 208.896 238.587 211.122C230.612 213.347 222.344 208.689 220.112 200.718L220.111 200.719C220.112 200.721 220.114 200.727 220.115 200.731C220.118 200.74 220.12 200.749 220.122 200.757C220.127 200.773 220.131 200.788 220.135 200.802C220.143 200.83 220.15 200.855 220.156 200.875C220.168 200.916 220.177 200.943 220.181 200.955C220.176 200.942 220.167 200.915 220.152 200.874C220.098 200.72 219.977 200.397 219.781 199.964C219.373 199.061 218.737 197.893 217.857 196.79C216.289 194.823 214.205 193.204 210.26 193.204C208.151 193.204 207.37 193.641 206.937 193.904C206.042 194.449 205.142 195.279 202.723 197.809C200.688 199.935 197.17 203.718 192.319 206.639C187.031 209.823 180.806 211.674 173.324 211.674C167.338 211.674 162.749 208.946 159.773 206.244C156.927 203.659 154.921 200.57 153.494 197.928C150.635 192.633 148.431 185.944 146.614 179.244C142.931 165.661 139.769 147.812 136.723 131.014C133.896 115.428 131.159 100.689 128.114 89.2051C125.046 100.688 122.288 115.434 119.438 131.032C116.37 147.828 113.184 165.683 109.473 179.271C107.642 185.973 105.421 192.668 102.538 197.968C101.098 200.615 99.0783 203.702 96.2168 206.281C93.2245 208.978 88.6397 211.674 82.6816 211.674C75.1859 211.674 68.9499 209.833 63.6455 206.663C58.7746 203.752 55.238 199.977 53.1855 197.848C50.7509 195.321 49.8371 194.482 48.9219 193.929C48.463 193.652 47.6417 193.204 45.4766 193.204C41.416 193.204 39.282 194.866 37.7041 196.831C36.8176 197.935 36.1778 199.102 35.7686 200.001C35.5721 200.433 35.4507 200.754 35.3965 200.906C35.3699 200.981 35.3612 201.01 35.3691 200.984C35.3732 200.971 35.3813 200.944 35.3936 200.903C35.3997 200.883 35.4079 200.858 35.416 200.83C35.4201 200.816 35.4241 200.8 35.4287 200.784C35.431 200.776 35.4331 200.767 35.4355 200.759C35.4368 200.755 35.4389 200.748 35.4395 200.746L35.4385 200.745C33.1916 208.712 24.9152 213.355 16.9443 211.114C8.96948 208.872 4.3211 200.59 6.5625 192.615L21.0029 196.674C6.56293 192.615 6.56444 192.608 6.56641 192.601C6.5672 192.598 6.56905 192.591 6.57031 192.587C6.57304 192.577 6.57619 192.567 6.5791 192.557C6.58494 192.536 6.59104 192.514 6.59766 192.491C6.611 192.445 6.62601 192.394 6.64258 192.338C6.67575 192.227 6.71598 192.096 6.7627 191.948C6.85613 191.652 6.97786 191.284 7.13086 190.854C7.43588 189.996 7.87172 188.874 8.46289 187.575C9.62963 185.011 11.4922 181.56 14.3135 178.047C20.1518 170.777 30.2555 163.204 45.4766 163.204C52.9516 163.204 59.1614 165.065 64.4346 168.251C69.2511 171.161 72.7723 174.94 74.7871 177.03C76.2013 178.498 77.1064 179.392 77.7988 179.992C78.6315 177.807 79.5536 174.953 80.5332 171.366C83.821 159.328 86.7532 143.013 89.9268 125.642C93.0081 108.774 96.3263 90.8576 100.336 77.1455C102.313 70.3832 104.747 63.5973 107.94 58.2168C110.545 53.8289 116.727 45.2068 127.774 45.0059C127.905 45.0025 128.036 45 128.168 45L128.555 45.0049Z" fill="#000000"/>
</svg>
